<svg id="Layer_1" data-name="Layer 1" xmlns="http://www.w3.org/2000/svg" viewBox="0 0 378.38 115.65"><defs><style>.cls-1{fill:#e30613;}.cls-2{fill:#fff;}</style></defs><path class="cls-1" d="M372.22,0H243.83a8.67,8.67,0,0,0-8.54,7.15l-12.1,68.1a6.17,6.17,0,0,0,6.07,7.24H357.65a8.67,8.67,0,0,0,8.53-7.16l12.1-68.09A6.16,6.16,0,0,0,372.22,0Z"/><path d="M36.71,45.06v6.31h10a18.86,18.86,0,0,1-3.41,8,19.24,19.24,0,0,1-6.86,5.83,20.34,20.34,0,0,1-9.39,2.14,21,21,0,0,1-10.53-2.66,18.71,18.71,0,0,1-7.27-7.46,22.73,22.73,0,0,1-2.6-11,22.7,22.7,0,0,1,2.6-11,18.68,18.68,0,0,1,7.27-7.45,20.77,20.77,0,0,1,10.53-2.67A19.6,19.6,0,0,1,39,28.6a20.55,20.55,0,0,1,7,8.68h6.68a28.86,28.86,0,0,0-4.85-9.09,25.05,25.05,0,0,0-8.53-6.82,26.75,26.75,0,0,0-12.21-2.63,27.52,27.52,0,0,0-13.87,3.51,25.44,25.44,0,0,0-9.67,9.8A28.3,28.3,0,0,0,0,46.18,28.35,28.35,0,0,0,3.52,60.31a25.34,25.34,0,0,0,9.67,9.79,27.43,27.43,0,0,0,13.87,3.52A26.29,26.29,0,0,0,39.38,70.8a25.09,25.09,0,0,0,9-7.82,32,32,0,0,0,5-11.61h6.3V45.06Z"/><path d="M83.06,34.68A13.23,13.23,0,0,0,76,36.5,11.75,11.75,0,0,0,71.64,41h-.08V35.06H65.63V72.13h5.93v-20A11.89,11.89,0,0,1,73,46.22a10.66,10.66,0,0,1,4.12-4.12,11.8,11.8,0,0,1,5.9-1.48h4.45V34.68Z"/><path d="M122.73,35.06v6h-.06a7.84,7.84,0,0,0-1.56-2,15.06,15.06,0,0,0-4.49-3.22,15.73,15.73,0,0,0-7.23-1.49,16.77,16.77,0,0,0-8.91,2.52A18.37,18.37,0,0,0,94,43.77a20.12,20.12,0,0,0-2.41,9.82A20.2,20.2,0,0,0,94,63.43a18.41,18.41,0,0,0,6.48,6.93,16.68,16.68,0,0,0,8.91,2.52,15.62,15.62,0,0,0,11.72-4.67,7.81,7.81,0,0,0,1.56-2h.06v5.92h5.94V35.06Zm-1.66,25.66a12.5,12.5,0,0,1-4.56,4.86,12.63,12.63,0,0,1-12.76,0,12.5,12.5,0,0,1-4.56-4.86,14.8,14.8,0,0,1-1.66-7.13,14.69,14.69,0,0,1,1.66-7.11,12.39,12.39,0,0,1,4.56-4.87,12.57,12.57,0,0,1,12.76,0,12.39,12.39,0,0,1,4.56,4.87,14.69,14.69,0,0,1,1.66,7.11A14.8,14.8,0,0,1,121.07,60.72Z"/><path d="M168,20.22V41h-.08a7.84,7.84,0,0,0-1.55-2,15.72,15.72,0,0,0-11.72-4.67,16.66,16.66,0,0,0-8.9,2.52,18.14,18.14,0,0,0-6.48,6.94,21.17,21.17,0,0,0,0,19.66,18.18,18.18,0,0,0,6.48,6.93,16.58,16.58,0,0,0,8.9,2.52,15.62,15.62,0,0,0,11.72-4.67,7.9,7.9,0,0,0,1.55-2H168v5.92h5.93V20.22Zm-1.67,40.5a12.42,12.42,0,0,1-4.56,4.86,12.63,12.63,0,0,1-12.76,0,12.4,12.4,0,0,1-4.55-4.86,14.81,14.81,0,0,1-1.68-7.13,14.7,14.7,0,0,1,1.68-7.11,12.32,12.32,0,0,1,21.87,0A14.81,14.81,0,0,1,168,53.59,14.92,14.92,0,0,1,166.31,60.72Z"/><path d="M219.89,53.22a19.08,19.08,0,0,0-2.48-9.6,18.25,18.25,0,0,0-6.82-6.83,19.9,19.9,0,0,0-19.24,0,18,18,0,0,0-6.8,6.91,19.87,19.87,0,0,0-2.48,9.89,19.88,19.88,0,0,0,2.48,9.9,17.89,17.89,0,0,0,6.8,6.9A18.83,18.83,0,0,0,201,72.88a18.28,18.28,0,0,0,11.54-3.57,20.14,20.14,0,0,0,6.64-8.66h-5.94a13.07,13.07,0,0,1-4.7,4.74A14.28,14.28,0,0,1,201,67.31a12.75,12.75,0,0,1-10.79-5.74A13.49,13.49,0,0,1,188,55.46h31.88Zm-31.74-3a12.87,12.87,0,0,1,2.23-5.19,12.27,12.27,0,0,1,4.44-3.77,14.07,14.07,0,0,1,12.32,0,11.93,11.93,0,0,1,4.41,3.77,11.67,11.67,0,0,1,2,5.19Z"/><path class="cls-2" d="M289.19,27.69l-5.72-8.16L299,8.61H285.37l-6.78,38.47a13.62,13.62,0,0,1-4.23,8.26,11.9,11.9,0,0,1-8.13,2.94,12.87,12.87,0,0,1-6.32-1.5A8.69,8.69,0,0,1,256,52.32a13.45,13.45,0,0,1-.5-7.31l6.41-36.4H245.18L239,43.91a27.36,27.36,0,0,0,1.13,15.18,21.15,21.15,0,0,0,9.21,10.65q6.54,3.87,16.3,3.88a30.79,30.79,0,0,0,13.85-3A26.93,26.93,0,0,0,289.52,62a31.77,31.77,0,0,0,5.32-13.13L300,20.09Z"/><path class="cls-2" d="M363.61,19.31a21.48,21.48,0,0,0-8.54-7.81,27,27,0,0,0-12.72-2.89H314.08l13,18.58L319,32.91l-7.63-10.84-8.74,49.74h16.7l3.08-17.15h17a29.08,29.08,0,0,0,13.82-3.3,25.61,25.61,0,0,0,9.84-9,22.88,22.88,0,0,0,3.61-12.46A20,20,0,0,0,363.61,19.31ZM346.86,37a9.48,9.48,0,0,1-6.77,2.31H325L327.72,24h12.37q4.52,0,6.85,2A6.31,6.31,0,0,1,349.3,31,7.86,7.86,0,0,1,346.86,37Z"/><polygon points="101.38 90.3 97 90.3 96.37 93.74 94.34 93.74 93.68 97.49 95.72 97.49 93.59 109.7 102.66 109.7 103.32 105.94 98.63 105.94 100.1 97.49 104.6 97.49 105.26 93.74 100.75 93.74 101.38 90.3"/><path d="M118.89,94.29a8.19,8.19,0,0,0-4.11-1,9.28,9.28,0,0,0-8,4.54,8.91,8.91,0,0,0-1.25,4.63,7.93,7.93,0,0,0,1,4,6.94,6.94,0,0,0,2.83,2.75,8.69,8.69,0,0,0,4.18,1,9.56,9.56,0,0,0,4-.8,9,9,0,0,0,2.92-2.06,9.91,9.91,0,0,0,1.84-2.77h-4.82a4.52,4.52,0,0,1-1.52,1.33,4.88,4.88,0,0,1-2.37.54,3.7,3.7,0,0,1-1.83-.45,3.22,3.22,0,0,1-1.26-1.3,4.32,4.32,0,0,1-.51-2h12.56a9,9,0,0,0,.15-1.69,7.88,7.88,0,0,0-1-3.91A7.14,7.14,0,0,0,118.89,94.29ZM110.42,100a6.18,6.18,0,0,1,1.13-1.68,4.34,4.34,0,0,1,1.44-1,4.5,4.5,0,0,1,1.69-.32,3.26,3.26,0,0,1,1.55.38,3.3,3.3,0,0,1,1.17,1.06A3.81,3.81,0,0,1,118,100Z"/><path d="M131,97a4.57,4.57,0,0,1,3.14.3,2.25,2.25,0,0,1,1,1.11h4.35a5.57,5.57,0,0,0-1-2.53,6.08,6.08,0,0,0-2.41-1.9,9.35,9.35,0,0,0-3.93-.73,8.41,8.41,0,0,0-3.56.7,5.53,5.53,0,0,0-2.31,1.88,4.5,4.5,0,0,0-.8,2.58,3.48,3.48,0,0,0,.81,2.37,5.54,5.54,0,0,0,1.93,1.4,27.69,27.69,0,0,0,2.86,1,17.52,17.52,0,0,1,1.68.55,4.4,4.4,0,0,1,1,.53.91.91,0,0,1,.39.74,1.27,1.27,0,0,1-.58,1.08,2.89,2.89,0,0,1-1.71.42,4.25,4.25,0,0,1-2.36-.59,3,3,0,0,1-1.2-1.44h-4.51a6.57,6.57,0,0,0,1.16,2.77,6.5,6.5,0,0,0,2.6,2.06,9.7,9.7,0,0,0,4.16.8,8.56,8.56,0,0,0,3.77-.77,5.84,5.84,0,0,0,2.41-2,4.79,4.79,0,0,0,.83-2.69,3.42,3.42,0,0,0-.83-2.36,5.61,5.61,0,0,0-2-1.42A27.76,27.76,0,0,0,133,99.84l-1.61-.51a3.26,3.26,0,0,1-.95-.51.87.87,0,0,1-.38-.7,1,1,0,0,1,.24-.66A1.51,1.51,0,0,1,131,97Z"/><polygon points="152.34 97.49 152.99 93.74 148.48 93.74 149.11 90.3 144.73 90.3 144.1 93.74 142.07 93.74 141.41 97.49 143.44 97.49 141.32 109.7 150.39 109.7 151.05 105.94 146.36 105.94 147.83 97.49 152.34 97.49"/><path d="M160,97a3.84,3.84,0,0,1,1.16-.15,3.93,3.93,0,0,1,2,.45,2.22,2.22,0,0,1,1,1.11h4.35a5.57,5.57,0,0,0-1-2.53,6.08,6.08,0,0,0-2.41-1.9,9.35,9.35,0,0,0-3.93-.73,8.33,8.33,0,0,0-3.55.7,5.5,5.5,0,0,0-2.32,1.88,4.5,4.5,0,0,0-.8,2.58,3.44,3.44,0,0,0,.82,2.37,5.41,5.41,0,0,0,1.92,1.4,28.59,28.59,0,0,0,2.86,1,17.52,17.52,0,0,1,1.68.55,4.4,4.4,0,0,1,1,.53.91.91,0,0,1,.39.74,1.27,1.27,0,0,1-.58,1.08,2.86,2.86,0,0,1-1.7.42,4.26,4.26,0,0,1-2.37-.59,3,3,0,0,1-1.2-1.44h-4.51a6.57,6.57,0,0,0,1.16,2.77,6.5,6.5,0,0,0,2.6,2.06,9.7,9.7,0,0,0,4.16.8,8.56,8.56,0,0,0,3.77-.77,5.84,5.84,0,0,0,2.41-2,4.79,4.79,0,0,0,.83-2.69,3.42,3.42,0,0,0-.83-2.36,5.52,5.52,0,0,0-2-1.42A27.76,27.76,0,0,0,162,99.84l-1.61-.51a3.4,3.4,0,0,1-1-.51.87.87,0,0,1-.38-.7,1,1,0,0,1,.24-.66A1.51,1.51,0,0,1,160,97Z"/><path d="M198.34,106.57a3.14,3.14,0,0,1-1.31.56q-.84,0-3.32-3.16c.5-.62,1.14-1.53,1.93-2.72s1.28-1.93,1.51-2.22A2.87,2.87,0,0,0,195,98c-.1.17-.44.77-1,1.8a22.88,22.88,0,0,1-1.58,2.52,60.11,60.11,0,0,1-3.26-5.47q4.63-3.19,4.63-5.83a3.19,3.19,0,0,0-1.17-2.45,5.36,5.36,0,0,0-3.65-1,6.83,6.83,0,0,0-4.29,1.39,4.63,4.63,0,0,0-1.81,3.9,10.13,10.13,0,0,0,1.34,4.44q-5.85,3.14-5.85,7.61a4.8,4.8,0,0,0,1.61,3.83,6.41,6.41,0,0,0,4.34,1.39,9.43,9.43,0,0,0,6.26-2.37,4.92,4.92,0,0,0,4,2.31q2.34,0,4.88-2.44l-.78-1.16Zm-11-16.48a2.88,2.88,0,0,1,1.68-.51,2.09,2.09,0,0,1,1.45.46,1.44,1.44,0,0,1,.52,1.09,2.72,2.72,0,0,1-.22,1.11,3.78,3.78,0,0,1-.52.86,7.94,7.94,0,0,1-1.48,1.36L188,95a6.78,6.78,0,0,1-1.34-3.24A1.93,1.93,0,0,1,187.37,90.09Zm1.3,16.26a4.9,4.9,0,0,1-1.25.82,4.5,4.5,0,0,1-2,.4,2.46,2.46,0,0,1-1.91-.89,3.86,3.86,0,0,1-.78-2.61,6.1,6.1,0,0,1,2.31-5,75.36,75.36,0,0,0,4,6.91Z"/><path d="M225.06,94.16a6.12,6.12,0,0,0-3.24-.89,6,6,0,0,0-2.93.7,6.83,6.83,0,0,0-2.11,1.71h-.19l.34-1.94h-4.38l-3.85,21.91h4.38l1.44-8.33h.22a4.86,4.86,0,0,0,1.87,2,5.91,5.91,0,0,0,3.24.83,7.53,7.53,0,0,0,4.08-1.22,8.74,8.74,0,0,0,3.08-3.46,11,11,0,0,0,1.16-5.12,8.07,8.07,0,0,0-.83-3.71A6.2,6.2,0,0,0,225.06,94.16Zm-1.94,9.67a4.57,4.57,0,0,1-1.65,1.93,4.09,4.09,0,0,1-2.25.65,4,4,0,0,1-1.93-.45,3.18,3.18,0,0,1-1.29-1.33,4.14,4.14,0,0,1-.47-2,6.76,6.76,0,0,1,.61-3,4.48,4.48,0,0,1,1.64-1.93A4.1,4.1,0,0,1,220,97a4.06,4.06,0,0,1,1.94.46,3,3,0,0,1,1.3,1.33,4.37,4.37,0,0,1,.46,2A6.9,6.9,0,0,1,223.12,103.83Z"/><path d="M240.75,93.43a5.36,5.36,0,0,0-2.75.65,4.27,4.27,0,0,0-1.66,1.63h-.16l.35-2h-4.38l-2.82,16h4.38l1.57-8.79a3.55,3.55,0,0,1,1.4-2.46,5,5,0,0,1,2.95-.8h2.31l.75-4.22Z"/><path d="M256,94.29a8.2,8.2,0,0,0-4.12-1,9.28,9.28,0,0,0-8,4.54,8.81,8.81,0,0,0-1.25,4.63,7.93,7.93,0,0,0,1,4,6.94,6.94,0,0,0,2.83,2.75,8.66,8.66,0,0,0,4.18,1,9.48,9.48,0,0,0,4-.8,9,9,0,0,0,2.93-2.06,10.09,10.09,0,0,0,1.83-2.77h-4.82a4.34,4.34,0,0,1-1.52,1.33,4.81,4.81,0,0,1-2.36.54,3.65,3.65,0,0,1-1.83-.45,3.31,3.31,0,0,1-1.27-1.3,4.32,4.32,0,0,1-.5-2h12.55a8.22,8.22,0,0,0,.16-1.69,7.78,7.78,0,0,0-1-3.91A7.05,7.05,0,0,0,256,94.29ZM247.48,100a6,6,0,0,1,1.13-1.68,4.34,4.34,0,0,1,1.44-1,4.46,4.46,0,0,1,1.69-.32,3.26,3.26,0,0,1,1.55.38,3.3,3.3,0,0,1,1.17,1.06,4.11,4.11,0,0,1,.63,1.54Z"/><path d="M276.29,94.16a6.12,6.12,0,0,0-3.24-.89,6,6,0,0,0-2.92.7A7,7,0,0,0,268,95.68h-.18l.34-1.94h-4.38l-3.85,21.91h4.38l1.44-8.33H266a4.84,4.84,0,0,0,1.86,2,6,6,0,0,0,3.24.83,7.51,7.51,0,0,0,4.08-1.22,8.68,8.68,0,0,0,3.09-3.46,11,11,0,0,0,1.16-5.12,8.07,8.07,0,0,0-.83-3.71A6.3,6.3,0,0,0,276.29,94.16Zm-1.94,9.67a4.55,4.55,0,0,1-1.64,1.93,4.1,4.1,0,0,1-2.26.65,4,4,0,0,1-1.92-.45,3.21,3.21,0,0,1-1.3-1.33,4.25,4.25,0,0,1-.47-2,6.76,6.76,0,0,1,.61-3A4.57,4.57,0,0,1,269,97.68a4.23,4.23,0,0,1,4.19-.2,3.09,3.09,0,0,1,1.3,1.33,4.37,4.37,0,0,1,.45,2A6.76,6.76,0,0,1,274.35,103.83Z"/></svg>