<svg id="Layer_1" data-name="Layer 1" xmlns="http://www.w3.org/2000/svg" viewBox="0 0 463.18 207.9"><defs><style>.cls-1{fill:#e30613;}</style></defs><path d="M89,88.72V95H99a18.79,18.79,0,0,1-3.4,8,19.36,19.36,0,0,1-6.87,5.83A20.31,20.31,0,0,1,79.34,111a21,21,0,0,1-10.53-2.65,18.77,18.77,0,0,1-7.26-7.47,22.7,22.7,0,0,1-2.6-11,22.7,22.7,0,0,1,2.6-11,18.66,18.66,0,0,1,7.26-7.45,20.79,20.79,0,0,1,10.53-2.67,19.56,19.56,0,0,1,12,3.55,20.63,20.63,0,0,1,7,8.68h6.67a28.51,28.51,0,0,0-4.85-9.08A25,25,0,0,0,91.55,65,26.75,26.75,0,0,0,79.34,62.4a27.48,27.48,0,0,0-13.87,3.52,25.34,25.34,0,0,0-9.67,9.79,30.12,30.12,0,0,0,0,28.26,25.44,25.44,0,0,0,9.67,9.8,27.58,27.58,0,0,0,13.87,3.51,26.26,26.26,0,0,0,12.32-2.82,25.12,25.12,0,0,0,9-7.82,31.93,31.93,0,0,0,5-11.61H112V88.72Z"/><path d="M135.34,78.34a13.13,13.13,0,0,0-7.08,1.83,11.69,11.69,0,0,0-4.34,4.48h-.08V78.72h-5.92V115.8h5.92v-20a11.9,11.9,0,0,1,1.49-5.89,10.61,10.61,0,0,1,4.11-4.11,11.71,11.71,0,0,1,5.9-1.49h4.46V78.34Z"/><path d="M175,78.72v6H175a7.93,7.93,0,0,0-1.55-2,15.13,15.13,0,0,0-4.5-3.23A15.72,15.72,0,0,0,161.68,78a16.72,16.72,0,0,0-8.91,2.52,18.47,18.47,0,0,0-6.49,6.94,21.25,21.25,0,0,0,0,19.66,18.37,18.37,0,0,0,6.49,6.93,16.64,16.64,0,0,0,8.91,2.53,15.72,15.72,0,0,0,11.72-4.68,7.71,7.71,0,0,0,1.55-2H175v5.93H181V78.72Zm-1.66,25.66a12.45,12.45,0,0,1-4.57,4.86,12.61,12.61,0,0,1-12.75,0,12.45,12.45,0,0,1-4.57-4.86,16.1,16.1,0,0,1,0-14.24A12.38,12.38,0,0,1,156,85.28a12.49,12.49,0,0,1,12.75,0,12.38,12.38,0,0,1,4.57,4.86,16.1,16.1,0,0,1,0,14.24Z"/><path d="M220.27,63.89V84.65h-.09a7.45,7.45,0,0,0-1.55-2,15.56,15.56,0,0,0-4.48-3.19A15.83,15.83,0,0,0,206.91,78,16.65,16.65,0,0,0,198,80.49a18.24,18.24,0,0,0-6.49,6.94,21.25,21.25,0,0,0,0,19.66A18.14,18.14,0,0,0,198,114a16.58,16.58,0,0,0,8.89,2.53,16.1,16.1,0,0,0,7.24-1.49,15.56,15.56,0,0,0,4.48-3.19,7.45,7.45,0,0,0,1.55-2h.09v5.93h5.92V63.89Zm-1.68,40.49a12.4,12.4,0,0,1-4.55,4.86,12.65,12.65,0,0,1-12.77,0,12.47,12.47,0,0,1-4.55-4.86,16,16,0,0,1,0-14.24,12.4,12.4,0,0,1,4.55-4.86,12.52,12.52,0,0,1,12.77,0,12.33,12.33,0,0,1,4.55,4.86,15.93,15.93,0,0,1,0,14.24Z"/><path d="M272.18,96.88a19.08,19.08,0,0,0-2.48-9.6,18.28,18.28,0,0,0-6.83-6.83,19.9,19.9,0,0,0-19.24,0,18.27,18.27,0,0,0-6.8,6.91,21,21,0,0,0,0,19.8,18.08,18.08,0,0,0,6.8,6.89,18.87,18.87,0,0,0,9.64,2.5A18.38,18.38,0,0,0,264.81,113a20.07,20.07,0,0,0,6.63-8.67H265.5a12.84,12.84,0,0,1-4.7,4.74,14.24,14.24,0,0,1-7.53,1.92,12.8,12.8,0,0,1-6.16-1.51,12.94,12.94,0,0,1-4.64-4.22,13.57,13.57,0,0,1-2.18-6.12h31.89Zm-31.75-3a13,13,0,0,1,2.24-5.19A12.19,12.19,0,0,1,247.11,85a14,14,0,0,1,12.31,0,12,12,0,0,1,4.42,3.77,11.74,11.74,0,0,1,2,5.19Z"/><path class="cls-1" d="M333.46,71.35l-5.73-8.16,15.58-10.91H329.64l-6.78,38.46A13.59,13.59,0,0,1,318.63,99a11.9,11.9,0,0,1-8.13,2.94,13,13,0,0,1-6.32-1.49A8.71,8.71,0,0,1,300.25,96a13.45,13.45,0,0,1-.5-7.31l6.4-36.39h-16.7l-6.22,35.29a27.27,27.27,0,0,0,1.13,15.18,21.11,21.11,0,0,0,9.21,10.65q6.54,3.88,16.3,3.88a30.79,30.79,0,0,0,13.85-3,27.06,27.06,0,0,0,10.07-8.57,31.87,31.87,0,0,0,5.32-13.14l5.18-28.79Z"/><path class="cls-1" d="M407.88,63a21.5,21.5,0,0,0-8.54-7.82,27,27,0,0,0-12.72-2.88H358.35l13,18.57-8.14,5.73-7.63-10.85-8.74,49.74h16.7l3.08-17.15h17A29,29,0,0,0,397.45,95a25.61,25.61,0,0,0,9.84-9,22.88,22.88,0,0,0,3.61-12.46A19.93,19.93,0,0,0,407.88,63ZM391.13,80.67A9.5,9.5,0,0,1,384.36,83H369.27L372,67.62h12.37c3,0,5.29.66,6.85,2a6.32,6.32,0,0,1,2.36,5.06A7.86,7.86,0,0,1,391.13,80.67Z"/><polygon points="136.21 130.17 131.83 130.17 131.2 133.61 129.17 133.61 128.51 137.37 130.55 137.37 128.42 149.58 137.5 149.58 138.15 145.82 133.46 145.82 134.93 137.37 139.44 137.37 140.09 133.61 135.59 133.61 136.21 130.17"/><path d="M153.72,134.16a8.19,8.19,0,0,0-4.11-1,9.15,9.15,0,0,0-4.63,1.22,9.3,9.3,0,0,0-3.39,3.32,8.91,8.91,0,0,0-1.25,4.63,8,8,0,0,0,1,4,7.1,7.1,0,0,0,2.84,2.75,8.64,8.64,0,0,0,4.18,1,9.51,9.51,0,0,0,4-.8,9.16,9.16,0,0,0,2.93-2.07,10,10,0,0,0,1.83-2.77h-4.82a4.33,4.33,0,0,1-1.52,1.33,4.76,4.76,0,0,1-2.36.55,3.65,3.65,0,0,1-1.83-.45,3.31,3.31,0,0,1-1.27-1.3,4.36,4.36,0,0,1-.5-2h12.55a8.9,8.9,0,0,0,.16-1.69,7.81,7.81,0,0,0-1-3.91A7.21,7.21,0,0,0,153.72,134.16Zm-8.46,5.71a6.25,6.25,0,0,1,1.12-1.67,4.23,4.23,0,0,1,1.44-1,4.49,4.49,0,0,1,1.69-.31,3.12,3.12,0,0,1,1.55.38,3.32,3.32,0,0,1,1.18,1.06,4,4,0,0,1,.62,1.53Z"/><path d="M165.85,136.9a3.86,3.86,0,0,1,1.16-.16,3.81,3.81,0,0,1,2,.46,2.18,2.18,0,0,1,1,1.11h4.36a5.69,5.69,0,0,0-1-2.54,6,6,0,0,0-2.41-1.89,9.34,9.34,0,0,0-3.93-.74,8.33,8.33,0,0,0-3.55.71,5.49,5.49,0,0,0-2.32,1.88,4.5,4.5,0,0,0-.8,2.58,3.39,3.39,0,0,0,.82,2.36,5.32,5.32,0,0,0,1.92,1.41c.74.32,1.7.67,2.87,1a17.15,17.15,0,0,1,1.67.55,3.84,3.84,0,0,1,1,.53.89.89,0,0,1,.39.73,1.27,1.27,0,0,1-.58,1.08,2.79,2.79,0,0,1-1.7.43,4.2,4.2,0,0,1-2.37-.6,3,3,0,0,1-1.2-1.44h-4.51a6.37,6.37,0,0,0,3.76,4.84,9.7,9.7,0,0,0,4.16.8,8.56,8.56,0,0,0,3.77-.77,5.85,5.85,0,0,0,2.41-2,4.79,4.79,0,0,0,.83-2.69,3.44,3.44,0,0,0-.83-2.37,5.7,5.7,0,0,0-1.95-1.42,29.2,29.2,0,0,0-2.92-1.06c-.68-.21-1.22-.38-1.61-.52a3.39,3.39,0,0,1-1-.5.88.88,0,0,1-.38-.7,1,1,0,0,1,.24-.66A1.43,1.43,0,0,1,165.85,136.9Z"/><polygon points="187.17 137.37 187.82 133.61 183.32 133.61 183.94 130.17 179.56 130.17 178.94 133.61 176.9 133.61 176.24 137.37 178.28 137.37 176.15 149.58 185.23 149.58 185.88 145.82 181.19 145.82 182.66 137.37 187.17 137.37"/><path d="M194.8,136.9a3.86,3.86,0,0,1,1.16-.16,3.81,3.81,0,0,1,2,.46,2.25,2.25,0,0,1,1,1.11h4.35a5.69,5.69,0,0,0-1-2.54,6,6,0,0,0-2.41-1.89,9.28,9.28,0,0,0-3.93-.74,8.33,8.33,0,0,0-3.55.71,5.49,5.49,0,0,0-2.32,1.88,4.5,4.5,0,0,0-.8,2.58,3.44,3.44,0,0,0,.82,2.36,5.32,5.32,0,0,0,1.92,1.41c.74.32,1.7.67,2.87,1a17.15,17.15,0,0,1,1.67.55,3.84,3.84,0,0,1,1,.53.89.89,0,0,1,.39.73,1.27,1.27,0,0,1-.58,1.08,2.79,2.79,0,0,1-1.7.43,4.15,4.15,0,0,1-2.36-.6,3,3,0,0,1-1.21-1.44h-4.51a6.37,6.37,0,0,0,3.76,4.84,9.74,9.74,0,0,0,4.16.8,8.56,8.56,0,0,0,3.77-.77,5.85,5.85,0,0,0,2.41-2,4.71,4.71,0,0,0,.83-2.69,3.39,3.39,0,0,0-.83-2.37,5.7,5.7,0,0,0-1.95-1.42,28,28,0,0,0-2.91-1.06c-.69-.21-1.23-.38-1.62-.52a3.39,3.39,0,0,1-.95-.5.88.88,0,0,1-.38-.7,1,1,0,0,1,.24-.66A1.48,1.48,0,0,1,194.8,136.9Z"/><path d="M233.18,146.45a3.37,3.37,0,0,1-1.32.56q-.84,0-3.32-3.16c.5-.63,1.15-1.54,1.93-2.72s1.29-1.93,1.52-2.23a2.91,2.91,0,0,0-2.19-1.06q-.17.25-1,1.8a25,25,0,0,1-1.58,2.52,60.24,60.24,0,0,1-3.26-5.48q4.63-3.19,4.64-5.82a3.22,3.22,0,0,0-1.18-2.46,5.35,5.35,0,0,0-3.64-1.05,6.84,6.84,0,0,0-4.29,1.4,4.61,4.61,0,0,0-1.82,3.89,10.06,10.06,0,0,0,1.35,4.45q-5.87,3.12-5.86,7.6a4.8,4.8,0,0,0,1.62,3.84,6.38,6.38,0,0,0,4.33,1.39,9.37,9.37,0,0,0,6.26-2.38,4.9,4.9,0,0,0,4,2.32c1.56,0,3.19-.82,4.88-2.44l-.78-1.16Zm-11-16.48a2.78,2.78,0,0,1,1.67-.52,2.12,2.12,0,0,1,1.46.47,1.42,1.42,0,0,1,.51,1.08,2.65,2.65,0,0,1-.22,1.11,3.76,3.76,0,0,1-.51.86,8,8,0,0,1-.71.74,5.7,5.7,0,0,1-.78.62l-.81.57a6.71,6.71,0,0,1-1.35-3.24A1.91,1.91,0,0,1,222.21,130Zm1.29,16.26a4.76,4.76,0,0,1-3.22,1.22,2.46,2.46,0,0,1-1.91-.89,3.89,3.89,0,0,1-.78-2.62,6.08,6.08,0,0,1,2.32-5,73.31,73.31,0,0,0,4,6.92Z"/><path d="M259.89,134a6.34,6.34,0,0,0-6.17-.19,7.07,7.07,0,0,0-2.11,1.7h-.19l.35-1.94h-4.39l-3.84,21.91h4.38l1.44-8.32h.22a4.89,4.89,0,0,0,1.86,2,5.91,5.91,0,0,0,3.24.83,7.44,7.44,0,0,0,4.08-1.23,8.63,8.63,0,0,0,3.08-3.45,10.91,10.91,0,0,0,1.16-5.12,7.89,7.89,0,0,0-.83-3.71A6.14,6.14,0,0,0,259.89,134ZM258,143.71a4.6,4.6,0,0,1-1.65,1.92,4.06,4.06,0,0,1-2.25.66,4,4,0,0,1-1.92-.45,3.21,3.21,0,0,1-1.3-1.33,4.21,4.21,0,0,1-.47-2,6.79,6.79,0,0,1,.61-3,4.58,4.58,0,0,1,1.64-1.92,4.29,4.29,0,0,1,4.2-.21,3.12,3.12,0,0,1,1.29,1.33,4.32,4.32,0,0,1,.46,2A6.79,6.79,0,0,1,258,143.71Z"/><path d="M275.59,133.3a5.37,5.37,0,0,0-2.76.66,4.34,4.34,0,0,0-1.66,1.63H271l.34-2H267l-2.82,16h4.38l1.57-8.8a3.58,3.58,0,0,1,1.41-2.46,5,5,0,0,1,2.94-.79h2.31l.76-4.23Z"/><path d="M290.78,134.16a8.2,8.2,0,0,0-4.12-1,9.18,9.18,0,0,0-4.63,1.22,9.28,9.28,0,0,0-3.38,3.32,8.91,8.91,0,0,0-1.25,4.63,8,8,0,0,0,1,4,7.07,7.07,0,0,0,2.83,2.75,8.66,8.66,0,0,0,4.18,1,9.56,9.56,0,0,0,4-.8,9,9,0,0,0,2.92-2.07,9.53,9.53,0,0,0,1.83-2.77h-4.82a4.29,4.29,0,0,1-1.51,1.33,4.77,4.77,0,0,1-2.37.55,3.68,3.68,0,0,1-1.83-.45,3.45,3.45,0,0,1-1.27-1.3,4.36,4.36,0,0,1-.5-2h12.55a8.15,8.15,0,0,0,.16-1.69,7.91,7.91,0,0,0-1-3.91A7.21,7.21,0,0,0,290.78,134.16Zm-8.47,5.71a6.27,6.27,0,0,1,1.13-1.67,4.23,4.23,0,0,1,1.44-1,4.49,4.49,0,0,1,1.69-.31,3.15,3.15,0,0,1,1.55.38,3.21,3.21,0,0,1,1.17,1.06,4,4,0,0,1,.63,1.53Z"/><path d="M311.12,134a6.32,6.32,0,0,0-6.16-.19,7,7,0,0,0-2.11,1.7h-.19l.34-1.94h-4.38l-3.85,21.91h4.38l1.44-8.32h.22a5,5,0,0,0,1.86,2,6,6,0,0,0,3.24.83,7.49,7.49,0,0,0,4.09-1.23,8.71,8.71,0,0,0,3.08-3.45,11,11,0,0,0,1.16-5.12,8,8,0,0,0-.83-3.71A6.16,6.16,0,0,0,311.12,134Zm-1.94,9.67a4.51,4.51,0,0,1-1.64,1.92,4.1,4.1,0,0,1-2.25.66,4,4,0,0,1-1.93-.45,3.33,3.33,0,0,1-1.3-1.33,4.32,4.32,0,0,1-.47-2,6.94,6.94,0,0,1,.61-3,4.6,4.6,0,0,1,1.65-1.92,4.1,4.1,0,0,1,2.25-.66,4.05,4.05,0,0,1,1.94.45,3.15,3.15,0,0,1,1.3,1.33,4.44,4.44,0,0,1,.45,2A6.79,6.79,0,0,1,309.18,143.71Z"/></svg>