<svg id="Layer_1" data-name="Layer 1" xmlns="http://www.w3.org/2000/svg" viewBox="0 0 463.18 207.9"><defs><style>.cls-1{fill:#e30613;}.cls-2{fill:#fff;}</style></defs><path class="cls-1" d="M414.62,44.73H286.23a8.68,8.68,0,0,0-8.54,7.15L265.59,120a6.16,6.16,0,0,0,6.07,7.24H400.05a8.66,8.66,0,0,0,8.53-7.15L420.68,52a6.16,6.16,0,0,0-6.06-7.24Z"/><path d="M79.11,89.79v6.3h10a18.72,18.72,0,0,1-3.41,8,19.34,19.34,0,0,1-6.86,5.83A20.34,20.34,0,0,1,69.46,112a21,21,0,0,1-10.53-2.66,18.71,18.71,0,0,1-7.26-7.47,24.53,24.53,0,0,1,0-22,18.66,18.66,0,0,1,7.26-7.45,20.87,20.87,0,0,1,10.53-2.67,19.6,19.6,0,0,1,12,3.56,20.55,20.55,0,0,1,7,8.68h6.68a28.75,28.75,0,0,0-4.85-9.09,25.1,25.1,0,0,0-8.53-6.83,26.88,26.88,0,0,0-12.21-2.63A27.43,27.43,0,0,0,55.59,67a25.41,25.41,0,0,0-9.67,9.79,30.12,30.12,0,0,0,0,28.26,25.37,25.37,0,0,0,9.67,9.8,27.52,27.52,0,0,0,13.87,3.51,26.26,26.26,0,0,0,12.32-2.82,25.2,25.2,0,0,0,9-7.82,32,32,0,0,0,5-11.61h6.31v-6.3Z"/><path d="M125.46,79.4a13.26,13.26,0,0,0-7.09,1.83A11.73,11.73,0,0,0,114,85.71H114V79.79H108v37.07H114v-20a11.9,11.9,0,0,1,1.48-5.89,10.7,10.7,0,0,1,4.12-4.11,11.81,11.81,0,0,1,5.9-1.49h4.45V79.4Z"/><path d="M165.13,79.79v6h-.06a7.84,7.84,0,0,0-1.56-2A15.25,15.25,0,0,0,159,80.52,15.85,15.85,0,0,0,151.8,79a16.69,16.69,0,0,0-8.92,2.52,18.41,18.41,0,0,0-6.48,6.93,21.25,21.25,0,0,0,0,19.66,18.37,18.37,0,0,0,6.48,6.94,16.78,16.78,0,0,0,8.92,2.52,16,16,0,0,0,7.22-1.49,15.76,15.76,0,0,0,4.49-3.18,7.75,7.75,0,0,0,1.56-2h.06v5.93h5.94V79.79Zm-1.66,25.65a12.59,12.59,0,0,1-4.56,4.87,12.63,12.63,0,0,1-12.76,0,12.59,12.59,0,0,1-4.56-4.87,16.1,16.1,0,0,1,0-14.24,12.43,12.43,0,0,1,4.56-4.86,12.57,12.57,0,0,1,12.76,0,12.43,12.43,0,0,1,4.56,4.86,16.1,16.1,0,0,1,0,14.24Z"/><path d="M210.38,65V85.71h-.08a7.71,7.71,0,0,0-1.55-2A15.62,15.62,0,0,0,197,79a16.58,16.58,0,0,0-8.9,2.52,18.18,18.18,0,0,0-6.48,6.93,21.25,21.25,0,0,0,0,19.66,18.14,18.14,0,0,0,6.48,6.94,16.66,16.66,0,0,0,8.9,2.52,16.05,16.05,0,0,0,7.23-1.49,15.76,15.76,0,0,0,4.49-3.18,7.84,7.84,0,0,0,1.55-2h.08v5.93h5.93V65Zm-1.67,40.49a12.57,12.57,0,0,1-4.55,4.87,12.65,12.65,0,0,1-12.77,0,12.49,12.49,0,0,1-4.55-4.87,15.93,15.93,0,0,1,0-14.24,12.33,12.33,0,0,1,4.55-4.86,12.59,12.59,0,0,1,12.77,0,12.4,12.4,0,0,1,4.55,4.86,16,16,0,0,1,0,14.24Z"/><path d="M262.29,98a19.11,19.11,0,0,0-2.48-9.61A18.15,18.15,0,0,0,253,81.52a19.9,19.9,0,0,0-19.24,0,18,18,0,0,0-6.8,6.9,21,21,0,0,0,0,19.8,18,18,0,0,0,6.8,6.9,18.86,18.86,0,0,0,9.63,2.49A18.34,18.34,0,0,0,254.92,114a20.11,20.11,0,0,0,6.64-8.67h-5.94a13,13,0,0,1-4.7,4.74,14.19,14.19,0,0,1-7.54,1.93,12.81,12.81,0,0,1-10.79-5.74,13.53,13.53,0,0,1-2.18-6.12h31.88Zm-31.74-3a12.87,12.87,0,0,1,2.23-5.19A12.3,12.3,0,0,1,237.22,86a14.16,14.16,0,0,1,12.32,0A12,12,0,0,1,254,89.79,11.67,11.67,0,0,1,256,95Z"/><path class="cls-2" d="M331.59,72.42l-5.72-8.17,15.57-10.91H327.77L321,91.81a13.65,13.65,0,0,1-4.23,8.26,11.94,11.94,0,0,1-8.13,2.93,13,13,0,0,1-6.32-1.49,8.72,8.72,0,0,1-3.93-4.46,13.47,13.47,0,0,1-.5-7.32l6.41-36.39H287.58l-6.22,35.3a27.43,27.43,0,0,0,1.13,15.17,21.07,21.07,0,0,0,9.21,10.65q6.54,3.89,16.3,3.88a30.92,30.92,0,0,0,13.85-3,27,27,0,0,0,10.07-8.58,31.81,31.81,0,0,0,5.32-13.14l5.18-28.79Z"/><path class="cls-2" d="M406,64a21.4,21.4,0,0,0-8.54-7.81,26.9,26.9,0,0,0-12.72-2.89H356.49l13,18.58-8.14,5.72-7.63-10.85L345,116.54h16.7l3.09-17.15h17a29,29,0,0,0,13.82-3.31,25.54,25.54,0,0,0,9.84-9A22.86,22.86,0,0,0,409,74.65,20,20,0,0,0,406,64Zm-16.75,17.7a9.52,9.52,0,0,1-6.77,2.3H367.4l2.72-15.36h12.37c3,0,5.3.67,6.85,2a6.32,6.32,0,0,1,2.36,5.06A7.9,7.9,0,0,1,389.26,81.74Z"/><polygon points="143.78 135.02 139.4 135.02 138.77 138.46 136.74 138.46 136.08 142.22 138.12 142.22 135.99 154.43 145.06 154.43 145.72 150.67 141.03 150.67 142.5 142.22 147 142.22 147.66 138.46 143.15 138.46 143.78 135.02"/><path d="M161.29,139a8.19,8.19,0,0,0-4.11-1,9.13,9.13,0,0,0-4.64,1.23,9.25,9.25,0,0,0-3.38,3.31,8.94,8.94,0,0,0-1.25,4.64,8,8,0,0,0,1,4,7,7,0,0,0,2.84,2.75,8.62,8.62,0,0,0,4.17,1,9.52,9.52,0,0,0,4-.8,9,9,0,0,0,2.93-2.07,10,10,0,0,0,1.83-2.77h-4.82a4.33,4.33,0,0,1-1.52,1.33,4.76,4.76,0,0,1-2.36.55,3.72,3.72,0,0,1-1.84-.45,3.35,3.35,0,0,1-1.26-1.3,4.24,4.24,0,0,1-.5-2h12.55a8.93,8.93,0,0,0,.15-1.69,7.91,7.91,0,0,0-1-3.91A7.21,7.21,0,0,0,161.29,139Zm-8.46,5.71a6,6,0,0,1,1.12-1.67,4.23,4.23,0,0,1,1.44-1,4.7,4.7,0,0,1,1.69-.31,3.24,3.24,0,0,1,2.72,1.44,3.82,3.82,0,0,1,.63,1.53Z"/><path d="M173.42,141.75a3.82,3.82,0,0,1,1.16-.16,3.93,3.93,0,0,1,2,.46,2.18,2.18,0,0,1,1,1.11h4.35a5.6,5.6,0,0,0-1-2.54,6.06,6.06,0,0,0-2.41-1.89,9.34,9.34,0,0,0-3.93-.74,8.33,8.33,0,0,0-3.55.71,5.43,5.43,0,0,0-2.32,1.88,4.5,4.5,0,0,0-.8,2.58,3.39,3.39,0,0,0,.82,2.36,5.32,5.32,0,0,0,1.92,1.41c.74.32,1.69.67,2.86,1a17.52,17.52,0,0,1,1.68.55,4,4,0,0,1,1,.53.89.89,0,0,1,.39.73,1.27,1.27,0,0,1-.58,1.08,2.8,2.8,0,0,1-1.71.43,4.17,4.17,0,0,1-2.36-.6,3,3,0,0,1-1.2-1.44h-4.51a6.52,6.52,0,0,0,1.16,2.77,6.44,6.44,0,0,0,2.6,2.07,9.7,9.7,0,0,0,4.16.8,8.56,8.56,0,0,0,3.77-.77,5.84,5.84,0,0,0,2.41-2,4.79,4.79,0,0,0,.83-2.69,3.4,3.4,0,0,0-.83-2.36,5.67,5.67,0,0,0-2-1.43,28,28,0,0,0-2.91-1.06c-.69-.21-1.22-.38-1.61-.52a3,3,0,0,1-.95-.5.88.88,0,0,1-.38-.7,1,1,0,0,1,.24-.66A1.51,1.51,0,0,1,173.42,141.75Z"/><polygon points="194.74 142.22 195.39 138.46 190.88 138.46 191.51 135.02 187.13 135.02 186.5 138.46 184.47 138.46 183.81 142.22 185.85 142.22 183.72 154.43 192.79 154.43 193.45 150.67 188.76 150.67 190.23 142.22 194.74 142.22"/><path d="M202.37,141.75a3.82,3.82,0,0,1,1.16-.16,3.91,3.91,0,0,1,2,.46,2.18,2.18,0,0,1,1,1.11h4.35a5.6,5.6,0,0,0-1-2.54,6.06,6.06,0,0,0-2.41-1.89,9.34,9.34,0,0,0-3.93-.74,8.33,8.33,0,0,0-3.55.71,5.43,5.43,0,0,0-2.32,1.88,4.5,4.5,0,0,0-.8,2.58,3.39,3.39,0,0,0,.82,2.36,5.32,5.32,0,0,0,1.92,1.41c.74.32,1.7.67,2.86,1a16.61,16.61,0,0,1,1.68.55,3.84,3.84,0,0,1,1,.53.89.89,0,0,1,.39.73,1.27,1.27,0,0,1-.58,1.08,2.79,2.79,0,0,1-1.7.43,4.2,4.2,0,0,1-2.37-.6,3,3,0,0,1-1.2-1.44h-4.51A6.52,6.52,0,0,0,196.3,152a6.44,6.44,0,0,0,2.6,2.07,9.7,9.7,0,0,0,4.16.8,8.56,8.56,0,0,0,3.77-.77,5.84,5.84,0,0,0,2.41-2,4.79,4.79,0,0,0,.83-2.69,3.4,3.4,0,0,0-.83-2.36,5.73,5.73,0,0,0-2-1.43,29.2,29.2,0,0,0-2.92-1.06c-.68-.21-1.22-.38-1.61-.52a3.15,3.15,0,0,1-.95-.5.88.88,0,0,1-.38-.7,1,1,0,0,1,.24-.66A1.51,1.51,0,0,1,202.37,141.75Z"/><path d="M240.74,151.3a3.29,3.29,0,0,1-1.31.56q-.84,0-3.32-3.16c.5-.63,1.14-1.53,1.93-2.72s1.29-1.93,1.51-2.23a2.87,2.87,0,0,0-2.19-1.06c-.1.17-.44.77-1,1.8a25,25,0,0,1-1.58,2.52,60.24,60.24,0,0,1-3.26-5.48q4.63-3.19,4.63-5.82a3.21,3.21,0,0,0-1.17-2.46,5.36,5.36,0,0,0-3.65-1.05,6.81,6.81,0,0,0-4.28,1.4,4.64,4.64,0,0,0-1.82,3.89,10,10,0,0,0,1.35,4.45q-5.87,3.13-5.86,7.6a4.82,4.82,0,0,0,1.61,3.84,6.41,6.41,0,0,0,4.34,1.39,9.37,9.37,0,0,0,6.26-2.38,4.9,4.9,0,0,0,4,2.32c1.56,0,3.19-.82,4.88-2.44l-.78-1.16Zm-11-16.48a2.81,2.81,0,0,1,1.68-.52,2.09,2.09,0,0,1,1.45.47,1.4,1.4,0,0,1,.52,1.08,2.65,2.65,0,0,1-.22,1.11,3.57,3.57,0,0,1-.52.86,6.74,6.74,0,0,1-.7.74,5.7,5.7,0,0,1-.78.62l-.82.57a6.78,6.78,0,0,1-1.34-3.24A1.91,1.91,0,0,1,229.77,134.82Zm1.3,16.26a4.65,4.65,0,0,1-1.25.81,4.5,4.5,0,0,1-2,.41,2.46,2.46,0,0,1-1.91-.89,3.89,3.89,0,0,1-.78-2.62,6.12,6.12,0,0,1,2.31-5,76.26,76.26,0,0,0,4,6.92Z"/><path d="M267.46,138.89a6.34,6.34,0,0,0-6.17-.19,7,7,0,0,0-2.11,1.7H259l.35-1.94H255l-3.85,21.91h4.39l1.43-8.32h.22a5,5,0,0,0,1.87,2,5.91,5.91,0,0,0,3.24.83,7.51,7.51,0,0,0,4.08-1.22,8.8,8.8,0,0,0,3.08-3.46,10.88,10.88,0,0,0,1.16-5.12,7.92,7.92,0,0,0-.83-3.71A6.14,6.14,0,0,0,267.46,138.89Zm-1.94,9.67a4.6,4.6,0,0,1-1.65,1.92,4.1,4.1,0,0,1-2.25.66,4,4,0,0,1-1.92-.45,3.21,3.21,0,0,1-1.3-1.33,4.21,4.21,0,0,1-.47-2,6.79,6.79,0,0,1,.61-3,4.51,4.51,0,0,1,1.64-1.92,4.1,4.1,0,0,1,2.25-.66,4.05,4.05,0,0,1,1.94.45,3.09,3.09,0,0,1,1.3,1.33,4.32,4.32,0,0,1,.46,2A6.94,6.94,0,0,1,265.52,148.56Z"/><path d="M283.15,138.15a5.36,5.36,0,0,0-2.75.66,4.27,4.27,0,0,0-1.66,1.63h-.16l.35-2h-4.38l-2.82,16h4.38l1.57-8.8a3.57,3.57,0,0,1,1.41-2.46,5,5,0,0,1,2.94-.79h2.31l.75-4.23Z"/><path d="M298.35,139a8.2,8.2,0,0,0-4.12-1,9.34,9.34,0,0,0-8,4.54,8.85,8.85,0,0,0-1.25,4.64,7.93,7.93,0,0,0,1,4,7,7,0,0,0,2.83,2.75,8.66,8.66,0,0,0,4.18,1,9.56,9.56,0,0,0,4-.8,9,9,0,0,0,2.92-2.07,10,10,0,0,0,1.83-2.77h-4.82a4.29,4.29,0,0,1-1.51,1.33,4.77,4.77,0,0,1-2.37.55,3.65,3.65,0,0,1-1.83-.45,3.45,3.45,0,0,1-1.27-1.3,4.36,4.36,0,0,1-.5-2H302a8.15,8.15,0,0,0,.16-1.69,7.81,7.81,0,0,0-1-3.91A7.12,7.12,0,0,0,298.35,139Zm-8.47,5.71a6.27,6.27,0,0,1,1.13-1.67,4.23,4.23,0,0,1,1.44-1,4.66,4.66,0,0,1,1.69-.31,3.26,3.26,0,0,1,1.55.38,3.21,3.21,0,0,1,1.17,1.06,4.13,4.13,0,0,1,.63,1.53Z"/><path d="M318.69,138.89a6.32,6.32,0,0,0-6.16-.19,7.12,7.12,0,0,0-2.12,1.7h-.18l.34-1.94h-4.38l-3.85,21.91h4.38l1.44-8.32h.22a5,5,0,0,0,1.86,2,6,6,0,0,0,3.24.83,7.57,7.57,0,0,0,4.09-1.22,8.8,8.8,0,0,0,3.08-3.46,11,11,0,0,0,1.16-5.12,8,8,0,0,0-.83-3.71A6.23,6.23,0,0,0,318.69,138.89Zm-1.94,9.67a4.58,4.58,0,0,1-1.64,1.92,4.1,4.1,0,0,1-2.25.66,4,4,0,0,1-1.93-.45,3.27,3.27,0,0,1-1.3-1.33,4.32,4.32,0,0,1-.47-2,6.94,6.94,0,0,1,.61-3,4.6,4.6,0,0,1,1.65-1.92,4.27,4.27,0,0,1,4.19-.21,3.15,3.15,0,0,1,1.3,1.33,4.44,4.44,0,0,1,.45,2A6.79,6.79,0,0,1,316.75,148.56Z"/></svg>